<?xml version="1.0" standalone="no"?>
<!DOCTYPE svg PUBLIC "-//W3C//DTD SVG 20010904//EN"
 "http://www.w3.org/TR/2001/REC-SVG-20010904/DTD/svg10.dtd">
<svg version="1.0" xmlns="http://www.w3.org/2000/svg"
 width="512.000000pt" height="512.000000pt" viewBox="0 0 512.000000 512.000000"
 preserveAspectRatio="xMidYMid meet">
<metadata>
Created by potrace 1.14, written by Peter Selinger 2001-2017
</metadata>
<g transform="translate(0.000000,512.000000) scale(0.100000,-0.100000)"
fill="#000000" stroke="none">
<path d="M2312 4943 c3 -16 -6 -18 -72 -19 -41 0 -113 -8 -160 -17 -47 -8
-114 -20 -150 -26 -123 -20 -158 -30 -220 -63 -38 -19 -71 -46 -84 -65 -11
-18 -27 -33 -34 -33 -12 0 -53 -20 -62 -31 -3 -3 -13 -8 -23 -12 -10 -4 -15
-11 -12 -17 3 -5 0 -7 -8 -4 -22 8 -96 -73 -107 -118 -6 -20 -15 -40 -21 -44
-8 -4 -8 0 0 14 20 37 12 35 -24 -8 -19 -23 -35 -45 -35 -49 0 -4 -8 -16 -18
-27 -32 -35 -82 -117 -82 -134 0 -10 -7 -23 -15 -30 -8 -7 -15 -20 -15 -30 0
-19 -38 -112 -50 -120 -3 -3 -11 -55 -18 -116 -9 -92 -8 -126 4 -200 8 -49 15
-150 15 -224 0 -97 5 -144 16 -170 8 -19 16 -66 18 -104 4 -67 25 -113 46
-100 10 6 13 -2 24 -51 6 -27 8 -28 19 -12 27 36 36 19 37 -75 2 -122 4 -142
25 -178 14 -22 21 -27 31 -18 10 8 13 6 13 -8 1 -42 19 13 21 64 2 29 7 52 12
52 5 0 4 6 -2 14 -7 8 -8 17 -3 20 4 2 5 35 1 73 -7 64 -2 173 8 173 9 0 49
-35 52 -45 13 -41 60 -63 89 -41 9 7 21 0 43 -23 16 -18 29 -39 29 -47 0 -19
19 -18 76 8 30 13 76 22 119 25 214 10 345 23 345 33 0 4 7 10 15 14 12 4 14
0 9 -22 -4 -15 -13 -34 -20 -43 -17 -20 -18 -38 -1 -78 13 -30 14 -31 29 -14
19 21 48 104 48 136 0 40 23 59 77 64 64 7 93 -8 93 -46 0 -54 45 -151 70
-151 9 0 30 47 30 68 0 10 -9 25 -20 35 -11 9 -20 28 -20 41 0 13 -6 27 -12
30 -7 3 -4 4 7 3 11 -1 25 -9 31 -17 10 -12 14 -12 28 -1 14 12 16 11 16 -8 0
-19 5 -21 63 -20 47 0 57 2 40 9 -29 12 -29 24 1 43 23 16 24 15 32 -11 4 -15
6 -33 5 -41 -2 -11 6 -12 36 -8 32 6 41 3 56 -16 10 -12 20 -17 23 -11 2 6 18
8 34 6 17 -2 36 0 43 6 8 6 34 5 76 -4 69 -14 115 -10 107 11 -2 7 9 27 25 44
25 28 34 32 75 30 31 -2 50 -9 58 -21 7 -10 16 -15 19 -11 4 3 7 -1 7 -11 0
-9 5 -14 10 -11 6 3 10 -4 10 -16 0 -16 -5 -20 -19 -16 -17 4 -18 2 -9 -19 6
-13 14 -24 18 -24 4 0 7 -21 6 -47 -1 -27 2 -71 6 -100 6 -37 5 -53 -5 -56 -9
-3 -9 -9 1 -26 7 -11 8 -21 4 -21 -5 0 -5 -32 0 -72 5 -39 6 -78 3 -86 -3 -8
0 -21 6 -28 10 -12 9 -13 -5 -8 -10 4 -16 1 -16 -9 0 -9 -7 -20 -16 -25 -13
-7 -13 -13 -3 -35 7 -15 16 -27 20 -27 14 0 -3 -74 -23 -99 -22 -29 -23 -121
-2 -121 8 0 11 -6 7 -16 -5 -13 -7 -13 -14 -2 -5 8 -7 1 -5 -19 6 -43 -13 -81
-47 -92 -15 -6 -27 -14 -26 -18 5 -29 -3 -43 -25 -43 -15 0 -32 -11 -45 -27
-11 -16 -21 -22 -21 -15 0 21 -20 13 -20 -9 0 -11 -4 -17 -10 -14 -5 3 -10 -1
-10 -10 0 -9 -4 -14 -9 -11 -5 3 -7 16 -3 29 5 20 4 21 -13 7 -11 -9 -16 -10
-11 -2 4 7 2 12 -5 12 -7 0 -10 -10 -6 -28 9 -44 -8 -60 -24 -24 -10 23 -16
28 -26 20 -18 -15 -16 -29 3 -21 12 4 15 2 12 -8 -3 -8 -11 -13 -18 -11 -8 2
-31 0 -52 -3 -37 -7 -51 -27 -25 -39 6 -3 0 -4 -15 -1 -24 5 -28 2 -25 -17 1
-12 -4 -23 -10 -24 -7 -1 -16 -3 -20 -4 -5 -1 -12 -2 -17 -1 -5 1 -2 -9 7 -22
16 -25 7 -57 -18 -57 -7 0 -15 -6 -18 -12 -3 -10 -8 -9 -22 2 -10 8 -16 10
-12 3 4 -6 1 -14 -5 -16 -10 -4 -10 -7 -1 -14 9 -6 7 -12 -7 -21 -16 -10 -21
-9 -31 9 -15 28 -22 18 -10 -14 7 -18 15 -25 26 -21 11 5 14 2 9 -10 -3 -9
-10 -16 -16 -16 -5 0 -6 -9 -3 -21 6 -17 3 -20 -12 -17 -11 2 -17 11 -16 23 1
20 1 20 -13 1 -9 -13 -12 -33 -8 -60 4 -26 2 -36 -4 -28 -5 7 -15 12 -23 10
-10 -2 -15 9 -18 37 l-4 40 -11 -43 c-6 -24 -15 -42 -21 -40 -5 2 -8 10 -7 19
1 9 -4 16 -13 16 -11 0 -14 -9 -11 -36 2 -20 1 -28 -1 -18 -2 9 -13 17 -23 17
-16 0 -18 6 -13 34 3 18 1 36 -5 40 -6 3 -10 -10 -10 -34 -1 -22 -3 -48 -6
-58 -7 -22 -56 -28 -56 -7 0 9 -9 15 -25 15 -13 0 -29 8 -34 17 -8 14 -9 11
-5 -14 4 -21 3 -33 -5 -33 -6 0 -10 10 -8 23 1 13 -3 21 -10 20 -7 -2 -13 5
-14 15 0 13 -2 12 -9 -5 -5 -13 -14 -23 -19 -23 -23 0 -41 14 -41 32 0 17 -3
18 -14 9 -18 -15 -30 1 -21 29 7 23 -7 26 -27 8 -13 -13 -48 -20 -48 -11 0 2
4 13 10 23 7 13 6 19 -6 24 -8 3 -12 10 -9 16 3 5 1 10 -5 10 -7 0 -9 7 -6 16
3 8 2 13 -3 10 -5 -3 -12 1 -15 10 -6 15 -8 15 -24 0 -25 -22 -28 -21 -29 17
-1 38 -12 77 -22 77 -4 0 -12 -5 -19 -12 -9 -9 -12 -8 -12 6 0 9 -4 15 -9 12
-5 -3 -7 -16 -3 -28 3 -13 1 -19 -5 -15 -6 4 -9 20 -8 37 2 21 -2 30 -12 30
-11 0 -14 7 -9 28 5 25 5 26 -6 5 -14 -29 -42 -31 -35 -4 5 20 -16 36 -33 26
-5 -3 -11 -1 -15 5 -3 5 -2 10 3 10 6 0 8 9 5 20 -5 19 -7 19 -30 -7 -14 -16
-22 -22 -19 -15 9 15 -6 16 -22 0 -9 -9 -12 -8 -12 8 0 20 -17 44 -32 44 -4 0
-8 -9 -8 -21 0 -12 -5 -19 -12 -16 -7 2 -13 13 -12 25 0 13 -4 18 -13 15 -9
-3 -13 3 -13 20 0 14 -7 28 -16 31 -11 4 -15 2 -11 -7 3 -8 -1 -14 -8 -14 -9
0 -11 6 -6 16 4 9 4 31 -1 49 -7 27 -12 31 -22 22 -11 -8 -18 -7 -29 4 -8 8
-18 12 -21 8 -4 -3 -4 1 0 11 4 10 1 17 -6 17 -7 0 -3 8 8 19 12 10 22 24 22
32 0 8 -7 4 -16 -9 -15 -22 -44 -30 -44 -12 0 14 -42 60 -54 60 -6 0 -4 -5 4
-10 9 -6 10 -10 3 -10 -33 0 -19 -96 30 -200 11 -25 20 -48 19 -52 -1 -5 3 -8
9 -8 8 0 8 -4 0 -14 -10 -12 -8 -19 9 -36 11 -11 18 -25 15 -30 -4 -6 -1 -10
4 -10 6 0 39 -29 74 -64 161 -167 191 -195 263 -246 120 -85 209 -136 329
-186 61 -25 115 -49 120 -54 6 -4 24 -10 40 -14 17 -4 52 -18 78 -32 56 -29
141 -38 158 -18 6 8 27 14 47 14 26 0 42 8 65 31 22 24 31 28 38 18 11 -18 18
-9 22 30 4 35 41 71 51 48 3 -6 5 -3 3 8 -2 23 26 68 37 58 4 -4 9 3 13 15 3
12 12 22 19 22 8 0 14 5 14 10 0 6 7 10 15 10 16 0 21 15 8 23 -5 2 -3 2 4 1
16 -4 43 23 43 42 0 8 5 14 10 14 6 0 20 16 32 36 19 32 23 35 29 18 6 -14 8
-9 8 18 1 20 4 38 9 40 4 2 17 19 30 38 28 45 28 30 2 -128 -11 -65 -22 -170
-25 -233 -8 -168 -19 -244 -45 -315 l-11 -29 21 20 c28 29 54 125 88 338 47
281 55 352 47 408 -5 35 -4 49 3 45 7 -4 7 5 1 29 -8 28 -6 42 11 75 11 22 21
57 22 78 0 33 10 65 40 128 10 23 13 37 27 144 5 41 7 78 5 81 -2 4 3 12 11
19 13 11 15 10 9 -6 -5 -16 -4 -16 5 -3 5 8 12 27 15 42 6 34 14 47 29 47 9 0
12 26 11 90 -1 50 2 92 6 95 4 2 5 26 2 53 -3 41 0 58 22 94 14 25 26 54 26
65 0 11 7 41 16 67 19 54 10 82 -36 122 -20 18 -22 24 -11 37 7 9 20 13 29 10
15 -6 16 -5 2 12 -11 14 -11 17 -1 11 10 -7 12 -3 6 14 -4 14 -3 20 3 16 5 -3
13 1 16 10 9 24 28 5 24 -25 -2 -15 2 -33 9 -40 7 -6 13 -22 14 -34 0 -12 7
-40 14 -62 14 -40 14 -40 11 38 -2 78 0 87 22 65 9 -9 12 -4 12 23 0 48 14 67
30 43 11 -18 11 -18 4 1 -4 11 -9 37 -12 58 -2 20 -8 37 -13 37 -5 0 -9 10 -9
23 0 13 -5 28 -11 34 -7 7 -7 32 -1 79 10 70 9 193 -2 274 -17 121 -24 236
-19 281 6 51 -6 103 -54 229 -36 96 -42 107 -99 163 -28 29 -55 63 -59 77 -4
14 -18 39 -31 57 -13 17 -24 35 -24 38 0 16 -63 84 -83 91 -12 3 -38 18 -57
33 -92 69 -166 107 -231 117 -24 4 -54 13 -65 21 -22 14 -139 14 -162 -1 -6
-3 -30 7 -54 24 -35 24 -59 31 -132 40 -49 5 -94 14 -100 20 -16 16 -37 12
-34 -7z m-67 -43 c3 -5 1 -10 -4 -10 -6 0 -11 5 -11 10 0 6 2 10 4 10 3 0 8
-4 11 -10z m-626 -250 c-13 -16 -24 -28 -27 -26 -6 6 29 56 39 56 5 0 0 -13
-12 -30z m1526 20 c-3 -5 3 -10 14 -10 11 0 29 -14 41 -30 l22 -30 -29 12
c-38 16 -67 44 -59 57 4 6 9 11 12 11 3 0 2 -4 -1 -10z m-1505 -92 c-11 -12
-23 -19 -26 -15 -8 8 18 36 34 37 8 0 5 -8 -8 -22z m-49 -61 c-10 -9 -11 -8
-5 6 3 10 9 15 12 12 3 -3 0 -11 -7 -18z m-261 -122 c0 -8 -4 -15 -10 -15 -5
0 -7 7 -4 15 4 8 8 15 10 15 2 0 4 -7 4 -15z m-40 -55 c0 -5 -5 -10 -11 -10
-5 0 -7 5 -4 10 3 6 8 10 11 10 2 0 4 -4 4 -10z m1420 -58 c10 -8 29 -24 43
-36 29 -25 47 -30 47 -13 0 25 20 -18 21 -48 1 -25 3 -26 6 -7 3 15 10 22 21
20 13 -2 18 -18 23 -63 3 -33 6 -54 7 -47 1 6 8 12 15 12 9 0 14 -14 15 -42 1
-43 1 -43 -14 -18 l-15 25 6 -30 c3 -16 7 -38 8 -47 3 -26 80 -90 89 -75 4 7
8 8 8 2 0 -5 14 -26 30 -45 16 -19 30 -41 30 -47 0 -7 5 -13 11 -13 24 0 37
-27 33 -71 -2 -24 -4 -48 -5 -54 0 -5 2 -56 4 -112 3 -65 0 -104 -6 -106 -11
-3 -19 -29 -18 -60 0 -19 -12 -15 -81 31 -23 15 -44 22 -55 18 -10 -4 -80 -9
-156 -11 -127 -4 -145 -7 -219 -36 -55 -22 -83 -39 -90 -55 -6 -13 -14 -21
-18 -19 -4 3 -7 -5 -6 -17 1 -29 -53 -46 -150 -47 -93 -1 -134 7 -135 28 0 10
-2 11 -6 4 -5 -15 -33 -18 -33 -4 0 6 5 13 10 16 10 6 3 53 -10 68 -4 4 -18 9
-31 11 -13 1 -42 11 -64 20 -37 17 -172 25 -193 12 -4 -2 -43 -1 -86 3 -65 6
-79 5 -89 -9 -7 -9 -25 -22 -42 -28 -16 -7 -40 -28 -53 -47 -21 -33 -25 -35
-80 -34 -49 0 -121 16 -84 18 8 1 12 7 9 14 -5 14 22 68 41 80 8 5 26 37 41
70 27 58 28 71 29 192 0 72 -5 135 -10 142 -15 18 19 111 48 129 15 11 30 39
45 87 24 77 48 118 64 113 6 -1 9 -14 8 -27 -2 -14 0 -18 4 -9 9 21 24 30 53
30 l25 -1 -24 -19 c-39 -34 -12 -22 50 20 66 45 84 49 99 20 9 -17 7 -22 -15
-32 -29 -13 -30 -16 -11 -41 11 -14 15 -15 20 -5 5 11 7 11 12 0 5 -10 9 -10
20 -1 16 13 48 4 38 -12 -3 -6 5 -4 18 5 17 11 45 16 86 15 39 -1 70 4 84 13
26 17 172 32 163 17 -4 -5 3 -9 15 -9 34 0 12 -20 -23 -21 l-32 -1 34 -11 c29
-9 40 -7 79 14 26 13 49 24 52 25 20 3 52 23 99 63 30 25 62 46 70 46 11 0 15
8 14 23 -2 13 1 21 6 18 5 -4 12 0 15 6 3 7 4 0 1 -17 -5 -27 -4 -28 9 -12 8
10 12 26 9 36 -4 15 0 18 23 13 15 -3 35 -11 44 -20z m-1280 -16 c0 -2 -8 -10
-17 -17 -16 -13 -17 -12 -4 4 13 16 21 21 21 13z m330 -57 c0 -4 -7 -6 -15 -3
-8 4 -15 1 -15 -7 0 -7 -2 -10 -5 -7 -3 3 -3 12 1 21 6 16 34 13 34 -4z m555
11 c-3 -5 -12 -10 -18 -10 -7 0 -6 4 3 10 19 12 23 12 15 0z m-615 -30 c0 -5
-5 -10 -11 -10 -5 0 -7 5 -4 10 3 6 8 10 11 10 2 0 4 -4 4 -10z m1218 -45 c-3
-3 -9 2 -12 12 -6 14 -5 15 5 6 7 -7 10 -15 7 -18z m13 -172 c13 -16 12 -17
-3 -4 -17 13 -22 21 -14 21 2 0 10 -8 17 -17z m-1 -612 c17 -5 -1 -9 -60 -14
-150 -12 -195 -7 -99 12 54 11 125 11 159 2z m-1071 -20 c40 -11 75 -22 79
-26 4 -4 -36 -5 -88 -1 -52 3 -116 7 -142 8 -52 2 -67 18 -18 18 17 0 30 5 30
10 0 16 60 12 139 -9z m884 -48 c-13 -2 -35 -2 -50 0 -16 2 -5 4 22 4 28 0 40
-2 28 -4z m180 0 c-7 -2 -21 -2 -30 0 -10 3 -4 5 12 5 17 0 24 -2 18 -5z
m-1390 -38 c-20 -27 -33 -32 -33 -12 0 17 20 37 37 37 11 0 9 -6 -4 -25z m277
15 c-84 -5 -135 -12 -154 -23 -23 -12 -33 -13 -43 -5 -33 27 11 35 187 35
l135 0 -125 -7z m927 -56 c-3 -3 -12 -4 -19 -1 -8 3 -5 6 6 6 11 1 17 -2 13
-5z m-807 -8 c0 -9 -30 -14 -35 -6 -4 6 3 10 14 10 12 0 21 -2 21 -4z m910
-16 c0 -20 -25 -38 -36 -27 -8 7 15 47 26 47 6 0 10 -9 10 -20z m-1006 -16
c13 -33 4 -42 -23 -25 -14 9 -9 41 8 41 5 0 12 -7 15 -16z m177 -18 c-27 -12
-38 -1 -21 19 10 12 16 13 27 3 13 -11 12 -14 -6 -22z m1215 -793 c-10 -10
-19 5 -10 18 6 11 8 11 12 0 2 -7 1 -15 -2 -18z m24 -8 c0 -8 -4 -15 -10 -15
-5 0 -7 7 -4 15 4 8 8 15 10 15 2 0 4 -7 4 -15z m-1680 -225 c0 -5 -2 -10 -4
-10 -3 0 -8 5 -11 10 -3 6 -1 10 4 10 6 0 11 -4 11 -10z m457 -366 c-3 -3 -12
-4 -19 -1 -8 3 -5 6 6 6 11 1 17 -2 13 -5z m583 -88 c0 -3 -4 -8 -10 -11 -5
-3 -10 -1 -10 4 0 6 5 11 10 11 6 0 10 -2 10 -4z"/>
<path d="M2841 4090 c-1 -21 30 -100 40 -100 5 0 0 19 -10 43 -10 23 -20 49
-24 57 -5 13 -6 13 -6 0z"/>
<path d="M3387 2844 c-9 -10 2 -24 18 -24 9 0 12 6 9 15 -6 16 -17 19 -27 9z"/>
<path d="M2150 2709 c-28 -11 -60 -38 -60 -51 0 -4 9 -8 21 -8 11 0 17 -4 14
-10 -3 -5 -16 -10 -27 -10 -12 0 -18 -3 -14 -7 4 -4 37 -9 74 -10 37 -2 94 -4
127 -5 33 -1 79 1 103 5 23 4 42 3 42 -1 0 -10 74 -92 84 -92 4 0 -2 15 -13
34 -25 39 -27 58 -6 50 9 -4 15 0 15 10 0 11 9 16 28 16 25 1 26 2 9 14 -11 8
-14 15 -7 18 19 6 0 35 -30 48 -32 13 -62 7 -101 -22 -15 -11 -48 -24 -74 -29
-40 -8 -53 -6 -81 11 -18 12 -34 24 -36 29 -5 15 -42 20 -68 10z"/>
<path d="M3170 2665 c0 -8 5 -15 10 -15 6 0 10 7 10 15 0 8 -4 15 -10 15 -5 0
-10 -7 -10 -15z"/>
<path d="M2117 2583 c-4 -3 -7 -11 -7 -17 0 -6 5 -5 12 2 6 6 9 14 7 17 -3 3
-9 2 -12 -2z"/>
<path d="M2159 2563 c-1 -5 -1 -11 -1 -14 1 -4 -17 -9 -38 -11 -22 -2 -40 0
-40 4 0 10 -52 -13 -62 -27 -5 -6 -8 -5 -8 3 0 9 -5 10 -19 2 -14 -7 -21 -6
-24 3 -3 7 -6 4 -6 -6 -1 -16 -3 -17 -16 -4 -17 17 -54 11 -62 -9 -3 -8 -14
-14 -24 -14 -10 0 -18 -3 -18 -7 3 -20 -2 -23 -17 -9 -14 15 -14 19 6 51 24
39 21 43 -15 19 -44 -29 -68 -80 -61 -127 4 -23 12 -44 18 -48 13 -8 48 25 48
45 0 21 21 31 32 15 7 -10 8 -9 4 6 -5 16 0 23 22 31 l27 10 1 -48 c1 -45 -9
-63 -19 -35 -5 15 -18 4 -21 -20 -2 -10 -15 -24 -31 -32 -27 -13 -27 -15 -10
-27 19 -14 39 -9 30 7 -4 5 9 9 27 9 26 -1 45 -12 86 -50 28 -27 52 -54 52
-60 0 -24 86 -90 139 -105 29 -9 55 -14 57 -12 3 3 -10 17 -28 32 -18 15 -32
30 -30 31 7 11 0 23 -15 28 -10 2 0 2 21 -1 51 -7 40 13 -11 23 -33 6 -35 8
-15 15 24 9 30 29 9 29 -7 0 -23 -7 -35 -16 -18 -12 -26 -13 -37 -4 -8 7 -15
20 -14 29 0 10 2 11 6 4 11 -29 23 -10 17 26 l-6 40 103 -5 c57 -3 118 -8 134
-13 19 -5 49 -3 80 4 27 7 55 11 62 8 7 -3 20 0 28 7 9 8 27 10 46 6 18 -3 38
-1 45 5 31 25 47 -28 20 -64 -12 -15 -18 -16 -34 -8 -13 7 -22 7 -24 1 -2 -6
-23 -14 -48 -19 l-45 -9 39 -1 c38 -1 39 -1 21 -21 -18 -19 -17 -20 6 -20 14
0 31 6 37 12 10 10 14 8 18 -10 7 -26 55 -31 76 -7 30 33 38 45 38 54 0 5 9
12 19 16 11 3 23 14 26 23 8 24 52 54 81 56 13 0 24 6 25 11 0 6 4 1 9 -10 8
-19 9 -19 9 -1 1 10 10 27 21 36 20 17 19 50 -1 50 -5 0 -9 6 -9 14 0 20 26
67 33 60 3 -3 0 -15 -6 -25 -9 -15 -9 -21 -1 -27 7 -4 14 -16 17 -27 2 -11 5
2 6 28 1 34 -5 56 -18 73 -17 22 -20 23 -24 7 -4 -14 -5 -13 -6 5 0 12 -5 22
-11 22 -5 0 -7 -7 -3 -16 6 -16 -27 -54 -47 -54 -6 0 -9 -4 -5 -9 11 -18 -30
-16 -49 3 -15 15 -20 16 -27 5 -6 -10 -9 -11 -9 -1 0 6 -6 12 -14 12 -8 0 -16
-6 -19 -12 -3 -10 -9 -8 -24 5 -22 19 -43 23 -43 7 0 -5 -17 -8 -39 -6 -33 3
-40 0 -50 -21 -13 -28 -32 -23 -24 7 3 12 0 20 -7 20 -6 0 -18 7 -27 15 -8 9
-18 13 -22 10 -3 -4 2 -12 12 -20 10 -7 15 -19 11 -29 -6 -15 -8 -15 -20 1
-13 17 -14 17 -8 1 4 -12 1 -18 -9 -18 -21 0 -33 20 -17 30 16 10 4 30 -17 30
-23 0 -73 -39 -73 -58 0 -14 -2 -15 -9 -3 -6 9 -6 22 0 32 6 12 4 19 -6 23 -8
3 -15 1 -15 -4 0 -6 -6 -10 -14 -10 -8 0 -16 -4 -18 -9 -1 -5 -15 -13 -31 -16
-24 -6 -27 -5 -25 15 4 29 -19 39 -24 11 -2 -15 -7 -18 -17 -12 -11 7 -12 13
-4 23 16 21 23 48 13 48 -6 0 -11 -3 -11 -7z m93 -126 c12 -14 43 -12 64 4 6
5 20 2 32 -7 12 -8 30 -13 40 -10 9 3 29 7 45 10 15 3 36 7 46 11 11 3 25 0
32 -8 8 -8 20 -12 29 -10 24 6 103 -11 107 -23 2 -7 -35 -18 -94 -28 -158 -27
-175 -29 -184 -14 -7 10 -9 9 -9 -4 0 -15 -9 -17 -61 -14 -34 2 -64 9 -68 14
-3 6 -19 14 -34 17 -15 4 -27 12 -27 19 0 8 -2 8 -8 -1 -10 -16 -92 -5 -92 13
0 17 12 18 27 3 9 -9 16 -7 28 5 13 12 21 14 30 6 9 -8 14 -6 19 6 3 9 13 14
21 10 8 -3 17 -1 20 4 9 14 22 12 37 -3z m-208 -36 c-7 -8 -35 9 -29 19 4 6
11 5 20 -3 7 -6 11 -14 9 -16z m651 16 c11 -9 14 -16 7 -21 -15 -9 -42 4 -42
20 0 18 11 18 35 1z m-25 -157 c0 -5 -5 -10 -11 -10 -5 0 -7 5 -4 10 3 6 8 10
11 10 2 0 4 -4 4 -10z"/>
<path d="M1567 2339 c4 -16 8 -17 14 -7 13 19 11 28 -5 28 -9 0 -12 -7 -9 -21z"/>
<path d="M2775 2330 c3 -5 11 -10 16 -10 6 0 7 5 4 10 -3 6 -11 10 -16 10 -6
0 -7 -4 -4 -10z"/>
<path d="M1385 2320 c-3 -6 1 -7 9 -4 18 7 21 14 7 14 -6 0 -13 -4 -16 -10z"/>
<path d="M1560 2299 c0 -5 5 -7 10 -4 6 3 10 8 10 11 0 2 -4 4 -10 4 -5 0 -10
-5 -10 -11z"/>
<path d="M1590 2289 c0 -6 7 -17 15 -26 8 -8 12 -20 9 -26 -5 -8 -3 -8 6 0 11
11 11 17 0 38 -14 26 -30 33 -30 14z"/>
<path d="M1390 2280 c0 -5 5 -10 11 -10 5 0 7 5 4 10 -3 6 -8 10 -11 10 -2 0
-4 -4 -4 -10z"/>
<path d="M3070 2274 c0 -8 5 -12 10 -9 6 3 10 10 10 16 0 5 -4 9 -10 9 -5 0
-10 -7 -10 -16z"/>
<path d="M2290 2176 c0 -2 7 -9 15 -16 9 -7 15 -8 15 -2 0 5 -7 12 -15 16 -8
3 -15 4 -15 2z"/>
<path d="M2533 2172 c-7 -4 -9 -13 -4 -21 10 -16 31 -6 31 15 0 16 -9 18 -27
6z"/>
<path d="M2575 2170 c-3 -5 -1 -10 4 -10 6 0 11 5 11 10 0 6 -2 10 -4 10 -3 0
-8 -4 -11 -10z"/>
<path d="M1771 2066 c-8 -10 -9 -16 -1 -21 5 -3 13 1 16 10 9 22 -1 29 -15 11z"/>
<path d="M1816 2065 c-3 -8 -1 -15 4 -15 6 0 10 7 10 15 0 8 -2 15 -4 15 -2 0
-6 -7 -10 -15z"/>
<path d="M1319 2026 c-35 -28 -72 -70 -101 -117 -65 -103 -247 -279 -290 -279
-6 0 -24 -7 -41 -15 -32 -14 -280 -111 -427 -166 -41 -15 -127 -51 -190 -79
-63 -28 -133 -58 -155 -67 -22 -8 -57 -22 -77 -30 l-38 -16 0 -629 0 -628
1030 0 c567 0 1030 3 1030 6 0 3 -30 72 -66 153 -92 204 -318 726 -366 846
-22 55 -93 208 -158 340 -154 313 -162 335 -151 422 5 38 23 118 40 178 17 61
31 113 31 118 0 14 -16 6 -71 -37z"/>
<path d="M2370 2010 c-12 -8 -11 -10 8 -10 12 0 22 5 22 10 0 13 -11 13 -30 0z"/>
<path d="M2280 2000 c-11 -7 -7 -10 18 -10 20 0 31 4 27 10 -8 13 -26 13 -45
0z"/>
<path d="M2630 1860 c0 -5 5 -10 11 -10 5 0 7 5 4 10 -3 6 -8 10 -11 10 -2 0
-4 -4 -4 -10z"/>
<path d="M3280 1802 c0 -4 20 -87 45 -187 24 -99 49 -206 55 -237 6 -32 36
-108 66 -169 l55 -111 -31 4 c-41 6 -38 -4 8 -23 31 -13 43 -28 75 -93 46 -92
114 -284 128 -362 17 -94 124 -390 200 -554 l32 -70 590 0 c557 0 589 1 582
18 -3 9 -39 147 -80 307 -46 182 -87 318 -108 365 -19 41 -47 116 -61 165 -15
50 -39 122 -53 160 -34 92 -145 306 -193 369 -82 111 -195 195 -262 196 -15 0
-69 11 -120 25 -51 14 -156 39 -233 54 -299 62 -583 121 -637 135 -32 7 -58
11 -58 8z"/>
<path d="M2541 1714 c0 -11 3 -14 6 -6 3 7 2 16 -1 19 -3 4 -6 -2 -5 -13z"/>
<path d="M2380 1630 c0 -5 5 -10 10 -10 6 0 10 5 10 10 0 6 -4 10 -10 10 -5 0
-10 -4 -10 -10z"/>
<path d="M3351 1147 c-13 -20 -13 -21 2 -8 14 11 17 11 17 1 0 -8 3 -11 6 -7
3 3 2 12 -3 21 -7 13 -11 12 -22 -7z"/>
</g>
</svg>
